<svg width="152" height="31" viewBox="0 0 152 31" fill="none" xmlns="http://www.w3.org/2000/svg">
<path d="M4.37017 12.2665C3.65015 12.1557 2.98964 11.9129 2.38864 11.5382C1.80297 11.1658 1.31157 10.6902 0.914455 10.1116C0.535013 9.52003 0.269293 8.85185 0.117294 8.10707C-0.0323473 7.34698 -0.0388066 6.52266 0.097916 5.63412L0.182778 5.08261C0.319501 4.19407 0.572297 3.41749 0.941166 2.75286C1.31239 2.07291 1.76669 1.51552 2.30407 1.08069C2.85913 0.6329 3.47075 0.327111 4.13893 0.163326C4.80946 -0.0157787 5.52006 -0.0475776 6.27073 0.0679294L6.54648 0.11036C7.4963 0.256512 8.30057 0.58414 8.95931 1.09324C9.6204 1.58703 10.1024 2.22575 10.4052 3.00942C10.7104 3.77777 10.7852 4.6675 10.6296 5.67859L8.56147 5.36036C8.67698 4.6097 8.64753 3.98571 8.47314 3.48841C8.3011 2.97578 8.0171 2.57923 7.62116 2.29875C7.24289 2.00531 6.77034 1.81498 6.20351 1.72776C5.37625 1.60047 4.6244 1.79842 3.94796 2.32163C3.2892 2.83188 2.86317 3.71511 2.66988 4.97132L2.43297 6.51094C2.24674 7.72119 2.38106 8.6828 2.83592 9.39577C3.3061 10.1111 3.99311 10.5383 4.89697 10.6774C5.44848 10.7622 5.94755 10.7293 6.39418 10.5784C6.85849 10.4146 7.2409 10.1206 7.54142 9.6964C7.85961 9.2592 8.07645 8.66528 8.19196 7.91461L10.2371 8.22931C10.0792 9.25573 9.73035 10.0959 9.19061 10.75C8.66619 11.4063 8.00684 11.8694 7.21257 12.1393C6.43597 12.3962 5.58042 12.4527 4.64592 12.3089L4.37017 12.2665Z" fill="#0D122C"/>
<path d="M18.7306 15.4525C17.6379 15.1039 16.778 14.561 16.1508 13.824C15.5237 13.087 15.14 12.2243 14.9998 11.236C14.8643 10.2328 14.9709 9.18488 15.3195 8.09216L15.4397 7.71561C15.7978 6.59335 16.3202 5.66995 17.0069 4.94542C17.6936 4.22088 18.5037 3.7472 19.4371 3.52437C20.3752 3.28678 21.3832 3.33995 22.4611 3.68389C23.5686 4.03725 24.436 4.58243 25.0631 5.31943C25.6903 6.05643 26.0739 6.91912 26.2141 7.9075C26.3543 8.89588 26.2478 9.94381 25.8944 11.0513L25.7743 11.4278C25.4162 12.5501 24.8938 13.4735 24.2071 14.198C23.5203 14.9226 22.7079 15.4036 21.7698 15.6412C20.8364 15.8641 19.8234 15.8011 18.7306 15.4525ZM19.2324 13.8799C20.0889 14.1531 20.8892 14.0668 21.6335 13.621C22.3824 13.1603 22.9359 12.3689 23.294 11.2466L23.7675 9.76257C24.1256 8.64032 24.1304 7.68193 23.7819 6.88741C23.4381 6.07813 22.838 5.53685 21.9815 5.26359C21.1398 4.99504 20.3371 5.08873 19.5734 5.54465C18.8292 5.99053 18.278 6.77459 17.9199 7.89685L17.4464 9.38088C17.0884 10.5031 17.0812 11.4689 17.425 12.2782C17.7882 13.0774 18.3907 13.6113 19.2324 13.8799Z" fill="#0D122C"/>
<path d="M27.7453 17.4634L32.3476 6.51039L34.0838 7.23992L33.6407 8.89471C34.2276 8.41835 34.8811 8.16337 35.6014 8.12976C36.3216 8.09615 37.0461 8.23246 37.7749 8.53868C38.9752 9.04305 39.7916 9.78115 40.2238 10.753C40.6561 11.7248 40.5961 12.8681 40.0437 14.1827L37.0265 21.3633L34.883 20.4626L37.639 13.9037C38.0713 12.8748 38.1722 12.0345 37.9417 11.3828C37.7254 10.7371 37.2386 10.2552 36.4812 9.93696C35.9525 9.71479 35.4382 9.65841 34.9383 9.76779C34.4444 9.86289 33.9912 10.1012 33.5787 10.4827C33.1722 10.8499 32.8429 11.3336 32.5907 11.9337L29.8887 18.3641L27.7453 17.4634Z" fill="#0D122C"/>
<path d="M47.218 24.75C45.8856 24.3368 44.9166 23.7199 44.311 22.8992C43.71 22.0637 43.6161 20.9798 44.0293 19.6474L45.9162 13.5627L42.6297 12.5435L43.1668 10.8114L46.52 11.8513L48.4198 8.47265L49.7966 8.89961L48.674 12.5193L53.8038 14.1101L53.2666 15.8422L48.1369 14.2514L46.3051 20.1584C46.149 20.6617 46.124 21.1084 46.2303 21.4983C46.3366 21.8883 46.5666 22.2193 46.9204 22.4913C47.2742 22.7633 47.7546 22.9934 48.3616 23.1817C48.8353 23.3286 49.2904 23.4048 49.7269 23.4103C50.1827 23.4056 50.589 23.3775 50.9458 23.3258L50.4156 25.0357C49.996 25.1328 49.4962 25.1482 48.9163 25.082C48.3319 25.0306 47.7657 24.9199 47.218 24.75Z" fill="#0D122C"/>
<path d="M56.8563 27.5401C55.6751 27.2174 54.8386 26.6915 54.3469 25.9626C53.8701 25.2378 53.7788 24.3372 54.0729 23.2606C54.3181 22.3635 54.7534 21.7112 55.3789 21.3037C56.0235 20.8853 56.9188 20.6961 58.0648 20.7361C59.2257 20.7801 60.6958 21.0453 62.4751 21.5315L62.8183 20.2755C63.0144 19.5578 62.9705 18.9834 62.6866 18.5524C62.4176 18.1254 61.8495 17.7934 60.9823 17.5564C60.1899 17.3399 59.5319 17.3368 59.0084 17.5473C58.4849 17.7578 58.1415 18.162 57.9781 18.7601L57.9045 19.0292L55.8412 18.4654C55.8766 18.218 55.8971 18.0549 55.9026 17.976C55.923 17.9013 55.9312 17.8714 55.9271 17.8863C55.923 17.9013 55.9169 17.9237 55.9087 17.9536C55.9155 17.9876 55.923 17.9896 55.9311 17.9597C56.2008 16.9729 56.8339 16.3024 57.8306 15.948C58.8422 15.5978 60.0582 15.6167 61.4786 16.0049C62.9887 16.4175 64.0454 17.0196 64.6486 17.8111C65.2668 18.6066 65.4124 19.6025 65.0856 20.7986L63.4247 26.8765C63.3594 27.1158 63.3722 27.3041 63.4632 27.4414C63.5542 27.5788 63.6969 27.674 63.8913 27.7271C64.2352 27.8211 64.5587 27.8131 64.8619 27.7031L64.4636 29.1609C64.2325 29.2424 63.9646 29.2816 63.6601 29.2788C63.3556 29.2759 63.0464 29.2316 62.7324 29.1458C62.2838 29.0232 61.9338 28.8633 61.6824 28.6661C61.427 28.4838 61.2687 28.2397 61.2077 27.9338C61.1466 27.6279 61.1591 27.2296 61.245 26.7389C60.8641 27.1329 60.433 27.4168 59.9517 27.5906C59.4745 27.7494 58.9749 27.8137 58.4529 27.7836C57.9268 27.7684 57.3946 27.6872 56.8563 27.5401ZM57.9867 26.1377C58.6745 26.3257 59.276 26.3294 59.7913 26.1488C60.3216 25.9724 60.7609 25.6585 61.1091 25.2074C61.4723 24.7603 61.7397 24.2228 61.9113 23.5948L62.1012 22.8995C60.8154 22.5482 59.7708 22.3431 58.9674 22.2842C58.183 22.2145 57.5814 22.2992 57.1626 22.5382C56.7628 22.7664 56.4832 23.1721 56.3239 23.7552C56.1605 24.3533 56.2099 24.8488 56.472 25.2418C56.7492 25.6389 57.2541 25.9376 57.9867 26.1377Z" fill="#0D122C"/>
<path d="M71.4519 30.5771C70.7263 30.5119 70.0518 30.3112 69.4284 29.975C68.8205 29.6402 68.3001 29.1966 67.8673 28.6441C67.4514 28.0776 67.1441 27.4275 66.9455 26.6938C66.7483 25.9446 66.6899 25.1223 66.7704 24.227L66.8204 23.6712C66.9008 22.7758 67.1042 21.9848 67.4305 21.2983C67.7582 20.5963 68.1765 20.0114 68.6854 19.5436C69.2111 19.0618 69.8023 18.7181 70.4588 18.5125C71.1167 18.2915 71.8239 18.215 72.5804 18.283L72.8583 18.308C73.8154 18.3941 74.6387 18.6704 75.3282 19.137C76.0191 19.5881 76.5403 20.1952 76.8919 20.9583C77.2449 21.7059 77.3756 22.5891 77.284 23.608L75.1999 23.4207C75.2679 22.6642 75.1992 22.0433 74.9938 21.558C74.7899 21.0572 74.4815 20.6794 74.0686 20.4244C73.6726 20.1553 73.189 19.9952 72.6178 19.9438C71.7842 19.8689 71.0463 20.1138 70.4042 20.6786C69.7789 21.2293 69.4093 22.1376 69.2955 23.4035L69.156 24.955C69.0464 26.1745 69.241 27.1258 69.7399 27.8087C70.2542 28.493 70.9667 28.8761 71.8776 28.9579C72.4333 29.0079 72.9293 28.9435 73.3656 28.7649C73.8186 28.5722 74.1818 28.2547 74.455 27.8124C74.745 27.356 74.924 26.7496 74.992 25.9931L77.0529 26.1784C76.9599 27.2127 76.6647 28.0732 76.1672 28.76C75.6852 29.4481 75.0563 29.9518 74.2806 30.2711C73.5217 30.5764 72.6715 30.6867 71.7298 30.6021L71.4519 30.5771Z" fill="#0D122C"/>
<path d="M87.2151 30.343C85.8236 30.4429 84.6966 30.2208 83.8339 29.6767C82.9701 29.1172 82.4883 28.1417 82.3883 26.7503L81.932 20.3961L78.4999 20.6426L78.37 18.8338L81.8717 18.5823L82.4119 14.744L83.8497 14.6408L84.1211 18.4208L89.4781 18.0361L89.608 19.8449L84.251 20.2296L84.694 26.3982C84.7318 26.9238 84.8711 27.3489 85.1119 27.6735C85.3528 27.9981 85.6875 28.2227 86.116 28.3473C86.5446 28.472 87.0758 28.5115 87.7096 28.466C88.2043 28.4305 88.656 28.3359 89.0645 28.1822C89.4874 28.012 89.8556 27.8379 90.1692 27.66L90.2974 29.4456C89.9419 29.6887 89.4821 29.8849 88.9178 30.0342C88.3547 30.199 87.7871 30.3019 87.2151 30.343Z" fill="#0D122C"/>
<path d="M106.265 26.9127L103.172 15.4418L104.496 15.0846L105.066 16.3036C105.157 15.7492 105.37 15.2904 105.706 14.927C106.056 14.5596 106.471 14.3113 106.95 14.1822C107.459 14.045 107.944 14.0586 108.406 14.223C108.882 14.3834 109.289 14.6993 109.624 15.1706C109.752 14.5742 109.975 14.0888 110.291 13.7145C110.623 13.3362 111.08 13.0683 111.664 12.9109C112.487 12.689 113.186 12.7814 113.761 13.1881C114.352 13.5908 114.778 14.2786 115.04 15.2513L117.377 23.9162L115.446 24.4368L113.219 16.176C112.916 15.0536 112.346 14.6054 111.507 14.8314C111.103 14.9403 110.809 15.1883 110.624 15.5752C110.44 15.9621 110.414 16.4025 110.547 16.8963L112.775 25.1572L110.867 25.6718L108.639 17.4109C108.336 16.2885 107.751 15.8443 106.883 16.0784C106.479 16.1874 106.185 16.4353 106 16.8222C105.83 17.2051 105.812 17.6435 105.945 18.1373L108.173 26.3982L106.265 26.9127Z" fill="#0D122C"/>
<path d="M125.164 21.6314C123.986 22.019 122.929 22.1057 121.994 21.8914C121.073 21.6722 120.281 21.1987 119.617 20.4707C118.968 19.7379 118.462 18.8194 118.098 17.7152L117.945 17.2514C117.568 16.103 117.454 15.0389 117.605 14.0592C117.755 13.0795 118.153 12.2306 118.798 11.5125C119.438 10.7797 120.303 10.234 121.392 9.8754C122.408 9.54105 123.345 9.46128 124.202 9.63609C125.074 9.80605 125.825 10.179 126.455 10.7548C127.1 11.3259 127.572 12.0678 127.873 12.9806L128.367 14.4824L120.439 17.0918L120.562 17.4672C120.945 18.6303 121.515 19.4216 122.274 19.8411C123.032 20.2606 123.838 20.3299 124.692 20.0488C125.634 19.7387 126.273 19.2755 126.609 18.6592C126.959 18.038 126.977 17.2489 126.662 16.2919L128.738 15.6087C129.033 16.5068 129.076 17.3574 128.868 18.1604C128.669 18.9439 128.252 19.6359 127.617 20.2364C126.997 20.832 126.179 21.297 125.164 21.6314ZM119.988 15.649L125.73 13.7592L125.621 13.4279C125.437 12.8684 125.157 12.414 124.781 12.0645C124.415 11.6955 123.977 11.4562 123.467 11.3464C122.958 11.2366 122.424 11.2738 121.864 11.4579C121.231 11.6663 120.745 11.9978 120.405 12.4523C120.079 12.902 119.879 13.4086 119.803 13.972C119.738 14.5158 119.787 15.038 119.952 15.5386L119.988 15.649Z" fill="#0D122C"/>
<path d="M141.898 17.0676L141.279 15.1418L149.534 8.53264L138.974 7.97014L138.348 6.02227L151.038 6.75482L151.785 9.07898L141.898 17.0676Z" fill="#0D122C"/>
</svg>
