<svg width="419" height="260" viewBox="0 0 419 260" fill="none" xmlns="http://www.w3.org/2000/svg">
<rect x="101" y="27" width="216" height="206" fill="#C3F079"/>
<path d="M174.1 136.9V135.16L182.6 131.92L174.1 128.68V126.92L184.3 130.86V132.96L174.1 136.9ZM198.044 137V126.78H199.224L199.424 127.92C199.624 127.48 199.904 127.147 200.264 126.92C200.638 126.693 201.038 126.58 201.464 126.58C201.918 126.58 202.318 126.7 202.664 126.94C203.024 127.18 203.291 127.533 203.464 128C203.704 127.533 203.998 127.18 204.344 126.94C204.704 126.7 205.144 126.58 205.664 126.58C206.398 126.58 206.958 126.813 207.344 127.28C207.744 127.747 207.944 128.413 207.944 129.28V137H206.224V129.64C206.224 128.64 205.851 128.14 205.104 128.14C204.744 128.14 204.444 128.28 204.204 128.56C203.964 128.84 203.844 129.2 203.844 129.64V137H202.144V129.64C202.144 128.64 201.758 128.14 200.984 128.14C200.624 128.14 200.324 128.28 200.084 128.56C199.858 128.84 199.744 129.2 199.744 129.64V137H198.044ZM214.977 137.2C213.91 137.2 213.023 136.987 212.317 136.56C211.623 136.133 211.103 135.533 210.757 134.76C210.423 133.987 210.257 133.1 210.257 132.1V131.68C210.257 130.64 210.45 129.74 210.837 128.98C211.223 128.22 211.777 127.633 212.497 127.22C213.217 126.793 214.07 126.58 215.057 126.58C215.977 126.58 216.763 126.767 217.417 127.14C218.083 127.513 218.597 128.02 218.957 128.66C219.33 129.3 219.517 130.033 219.517 130.86V132.22H212.337V132.56C212.337 133.613 212.59 134.413 213.097 134.96C213.603 135.507 214.243 135.78 215.017 135.78C215.87 135.78 216.517 135.573 216.957 135.16C217.41 134.747 217.637 134.107 217.637 133.24H219.517C219.517 134.053 219.323 134.76 218.937 135.36C218.563 135.947 218.037 136.4 217.357 136.72C216.69 137.04 215.897 137.2 214.977 137.2ZM212.357 130.92H217.557V130.62C217.557 130.113 217.45 129.667 217.237 129.28C217.037 128.88 216.743 128.567 216.357 128.34C215.97 128.113 215.523 128 215.017 128C214.443 128 213.957 128.14 213.557 128.42C213.17 128.7 212.87 129.06 212.657 129.5C212.457 129.927 212.357 130.367 212.357 130.82V130.92ZM243.861 126.94V128.68L235.361 131.92L243.861 135.16V136.92L233.661 132.98V130.88L243.861 126.94Z" fill="#0D122C"/>
<path d="M130 0C159.853 0 187.354 10.063 209.3 26.9809C178.465 50.7515 158.6 88.0555 158.6 130C158.6 171.944 178.465 209.248 209.3 233.018C187.354 249.936 159.853 260 130 260C58.203 260 0 201.797 0 130C0 58.203 58.203 0 130 0Z" fill="#B1D0FF"/>
<path d="M288.167 0C258.314 0 230.812 10.063 208.867 26.9809C239.701 50.7515 259.567 88.0555 259.567 130C259.567 171.944 239.701 209.248 208.867 233.018C230.812 249.936 258.314 260 288.167 260C359.964 260 418.167 201.797 418.167 130C418.167 58.203 359.964 0 288.167 0Z" fill="#B1D0FF"/>
<path d="M32.18 137.2C31.4467 137.2 30.7733 137.027 30.16 136.68C29.5467 136.32 29.0533 135.767 28.68 135.02C28.32 134.26 28.14 133.273 28.14 132.06V131.84C28.14 130.707 28.32 129.747 28.68 128.96C29.04 128.173 29.5267 127.58 30.14 127.18C30.7667 126.78 31.46 126.58 32.22 126.58C32.9 126.58 33.4933 126.707 34 126.96C34.5067 127.2 34.9 127.533 35.18 127.96V122.6H37.18V137H35.56L35.34 135.54C35.0467 136.073 34.6333 136.487 34.1 136.78C33.5667 137.06 32.9267 137.2 32.18 137.2ZM32.66 135.76C33.3933 135.76 33.9933 135.493 34.46 134.96C34.94 134.413 35.18 133.573 35.18 132.44V131.32C35.18 130.2 34.94 129.367 34.46 128.82C33.9933 128.273 33.3933 128 32.66 128C31.9267 128 31.32 128.28 30.84 128.84C30.3733 129.387 30.14 130.213 30.14 131.32V132.42C30.14 133.553 30.3733 134.393 30.84 134.94C31.32 135.487 31.9267 135.76 32.66 135.76ZM44.9922 137.2C43.9255 137.2 43.0389 136.987 42.3322 136.56C41.6389 136.133 41.1189 135.533 40.7722 134.76C40.4389 133.987 40.2722 133.1 40.2722 132.1V131.68C40.2722 130.64 40.4655 129.74 40.8522 128.98C41.2389 128.22 41.7922 127.633 42.5122 127.22C43.2322 126.793 44.0855 126.58 45.0722 126.58C45.9922 126.58 46.7789 126.767 47.4322 127.14C48.0989 127.513 48.6122 128.02 48.9722 128.66C49.3455 129.3 49.5322 130.033 49.5322 130.86V132.22H42.3522V132.56C42.3522 133.613 42.6055 134.413 43.1122 134.96C43.6189 135.507 44.2589 135.78 45.0322 135.78C45.8855 135.78 46.5322 135.573 46.9722 135.16C47.4255 134.747 47.6522 134.107 47.6522 133.24H49.5322C49.5322 134.053 49.3389 134.76 48.9522 135.36C48.5789 135.947 48.0522 136.4 47.3722 136.72C46.7055 137.04 45.9122 137.2 44.9922 137.2ZM42.3722 130.92H47.5722V130.62C47.5722 130.113 47.4655 129.667 47.2522 129.28C47.0522 128.88 46.7589 128.567 46.3722 128.34C45.9855 128.113 45.5389 128 45.0322 128C44.4589 128 43.9722 128.14 43.5722 128.42C43.1855 128.7 42.8855 129.06 42.6722 129.5C42.4722 129.927 42.3722 130.367 42.3722 130.82V130.92ZM55.9044 137L51.9244 126.78H54.0644L57.0444 134.62H57.1044L60.0844 126.78H62.0444L58.0244 137H55.9044ZM68.9766 137.2C67.9099 137.2 67.0232 136.987 66.3166 136.56C65.6232 136.133 65.1032 135.533 64.7566 134.76C64.4232 133.987 64.2566 133.1 64.2566 132.1V131.68C64.2566 130.64 64.4499 129.74 64.8366 128.98C65.2232 128.22 65.7766 127.633 66.4966 127.22C67.2166 126.793 68.0699 126.58 69.0566 126.58C69.9766 126.58 70.7632 126.767 71.4166 127.14C72.0832 127.513 72.5966 128.02 72.9566 128.66C73.3299 129.3 73.5166 130.033 73.5166 130.86V132.22H66.3366V132.56C66.3366 133.613 66.5899 134.413 67.0966 134.96C67.6032 135.507 68.2432 135.78 69.0166 135.78C69.8699 135.78 70.5166 135.573 70.9566 135.16C71.4099 134.747 71.6366 134.107 71.6366 133.24H73.5166C73.5166 134.053 73.3232 134.76 72.9366 135.36C72.5632 135.947 72.0366 136.4 71.3566 136.72C70.6899 137.04 69.8966 137.2 68.9766 137.2ZM66.3566 130.92H71.5566V130.62C71.5566 130.113 71.4499 129.667 71.2366 129.28C71.0366 128.88 70.7432 128.567 70.3566 128.34C69.9699 128.113 69.5232 128 69.0166 128C68.4432 128 67.9566 128.14 67.5566 128.42C67.1699 128.7 66.8699 129.06 66.6566 129.5C66.4566 129.927 66.3566 130.367 66.3566 130.82V130.92ZM80.1288 137V124.14H76.4488V122.58H82.1088V137H80.1288ZM76.4488 137V135.46H85.5888V137H76.4488ZM92.9609 137.2C91.9743 137.2 91.1276 136.98 90.4209 136.54C89.7143 136.1 89.1743 135.493 88.8009 134.72C88.4276 133.933 88.2409 133.047 88.2409 132.06V131.72C88.2409 130.707 88.4276 129.813 88.8009 129.04C89.1743 128.267 89.7143 127.667 90.4209 127.24C91.1276 126.8 91.9676 126.58 92.9409 126.58C93.9409 126.58 94.7943 126.8 95.5009 127.24C96.2076 127.68 96.7476 128.287 97.1209 129.06C97.4943 129.833 97.6809 130.72 97.6809 131.72V132.06C97.6809 133.073 97.4943 133.967 97.1209 134.74C96.7476 135.513 96.2076 136.12 95.5009 136.56C94.7943 136.987 93.9476 137.2 92.9609 137.2ZM92.9609 135.78C93.7343 135.78 94.3676 135.5 94.8609 134.94C95.3543 134.367 95.6009 133.573 95.6009 132.56V131.22C95.6009 130.207 95.3543 129.42 94.8609 128.86C94.3676 128.287 93.7343 128 92.9609 128C92.2009 128 91.5676 128.287 91.0609 128.86C90.5676 129.42 90.3209 130.207 90.3209 131.22V132.56C90.3209 133.573 90.5676 134.367 91.0609 134.94C91.5676 135.5 92.2009 135.78 92.9609 135.78ZM100.773 140.62V126.78H102.393L102.613 128.24C102.906 127.693 103.32 127.28 103.853 127C104.4 126.72 105.046 126.58 105.793 126.58C106.566 126.58 107.253 126.767 107.853 127.14C108.466 127.5 108.946 128.06 109.293 128.82C109.653 129.58 109.833 130.567 109.833 131.78V132.04C109.833 133.16 109.646 134.107 109.273 134.88C108.9 135.64 108.4 136.22 107.773 136.62C107.16 137.007 106.473 137.2 105.713 137.2C105.033 137.2 104.44 137.073 103.933 136.82C103.44 136.567 103.053 136.253 102.773 135.88V140.62H100.773ZM105.313 135.76C106.046 135.76 106.646 135.493 107.113 134.96C107.58 134.427 107.813 133.6 107.813 132.48V131.32C107.813 130.507 107.7 129.86 107.473 129.38C107.246 128.9 106.94 128.553 106.553 128.34C106.18 128.113 105.766 128 105.313 128C104.873 128 104.46 128.107 104.073 128.32C103.686 128.52 103.373 128.867 103.133 129.36C102.893 129.84 102.773 130.493 102.773 131.32V132.48C102.773 133.6 103.013 134.427 103.493 134.96C103.973 135.493 104.58 135.76 105.313 135.76ZM116.945 137.2C115.879 137.2 114.992 136.987 114.285 136.56C113.592 136.133 113.072 135.533 112.725 134.76C112.392 133.987 112.225 133.1 112.225 132.1V131.68C112.225 130.64 112.419 129.74 112.805 128.98C113.192 128.22 113.745 127.633 114.465 127.22C115.185 126.793 116.039 126.58 117.025 126.58C117.945 126.58 118.732 126.767 119.385 127.14C120.052 127.513 120.565 128.02 120.925 128.66C121.299 129.3 121.485 130.033 121.485 130.86V132.22H114.305V132.56C114.305 133.613 114.559 134.413 115.065 134.96C115.572 135.507 116.212 135.78 116.985 135.78C117.839 135.78 118.485 135.573 118.925 135.16C119.379 134.747 119.605 134.107 119.605 133.24H121.485C121.485 134.053 121.292 134.76 120.905 135.36C120.532 135.947 120.005 136.4 119.325 136.72C118.659 137.04 117.865 137.2 116.945 137.2ZM114.325 130.92H119.525V130.62C119.525 130.113 119.419 129.667 119.205 129.28C119.005 128.88 118.712 128.567 118.325 128.34C117.939 128.113 117.492 128 116.985 128C116.412 128 115.925 128.14 115.525 128.42C115.139 128.7 114.839 129.06 114.625 129.5C114.425 129.927 114.325 130.367 114.325 130.82V130.92ZM126.438 137V128.34H123.858V126.78H128.058L128.158 128.28C128.398 127.747 128.764 127.333 129.258 127.04C129.764 126.733 130.344 126.58 130.998 126.58C131.998 126.58 132.764 126.88 133.298 127.48C133.844 128.067 134.118 128.82 134.118 129.74C134.118 129.887 134.111 130.027 134.098 130.16C134.098 130.28 134.084 130.427 134.058 130.6H132.358V130.18C132.358 129.82 132.284 129.487 132.138 129.18C132.004 128.873 131.791 128.627 131.498 128.44C131.218 128.24 130.851 128.14 130.398 128.14C129.958 128.14 129.584 128.267 129.278 128.52C128.984 128.773 128.764 129.093 128.618 129.48C128.471 129.867 128.398 130.273 128.398 130.7V137H126.438ZM123.758 137V135.46H132.978V137H123.758Z" fill="#0D122C"/>
<path d="M288.013 137.2C287.28 137.2 286.606 137.027 285.993 136.68C285.38 136.32 284.886 135.767 284.513 135.02C284.153 134.26 283.973 133.273 283.973 132.06V131.84C283.973 130.707 284.153 129.747 284.513 128.96C284.873 128.173 285.36 127.58 285.973 127.18C286.6 126.78 287.293 126.58 288.053 126.58C288.733 126.58 289.326 126.707 289.833 126.96C290.34 127.2 290.733 127.533 291.013 127.96V122.6H293.013V137H291.393L291.173 135.54C290.88 136.073 290.466 136.487 289.933 136.78C289.4 137.06 288.76 137.2 288.013 137.2ZM288.493 135.76C289.226 135.76 289.826 135.493 290.293 134.96C290.773 134.413 291.013 133.573 291.013 132.44V131.32C291.013 130.2 290.773 129.367 290.293 128.82C289.826 128.273 289.226 128 288.493 128C287.76 128 287.153 128.28 286.673 128.84C286.206 129.387 285.973 130.213 285.973 131.32V132.42C285.973 133.553 286.206 134.393 286.673 134.94C287.153 135.487 287.76 135.76 288.493 135.76ZM300.825 137.2C299.759 137.2 298.872 136.987 298.165 136.56C297.472 136.133 296.952 135.533 296.605 134.76C296.272 133.987 296.105 133.1 296.105 132.1V131.68C296.105 130.64 296.299 129.74 296.685 128.98C297.072 128.22 297.625 127.633 298.345 127.22C299.065 126.793 299.919 126.58 300.905 126.58C301.825 126.58 302.612 126.767 303.265 127.14C303.932 127.513 304.445 128.02 304.805 128.66C305.179 129.3 305.365 130.033 305.365 130.86V132.22H298.185V132.56C298.185 133.613 298.439 134.413 298.945 134.96C299.452 135.507 300.092 135.78 300.865 135.78C301.719 135.78 302.365 135.573 302.805 135.16C303.259 134.747 303.485 134.107 303.485 133.24H305.365C305.365 134.053 305.172 134.76 304.785 135.36C304.412 135.947 303.885 136.4 303.205 136.72C302.539 137.04 301.745 137.2 300.825 137.2ZM298.205 130.92H303.405V130.62C303.405 130.113 303.299 129.667 303.085 129.28C302.885 128.88 302.592 128.567 302.205 128.34C301.819 128.113 301.372 128 300.865 128C300.292 128 299.805 128.14 299.405 128.42C299.019 128.7 298.719 129.06 298.505 129.5C298.305 129.927 298.205 130.367 298.205 130.82V130.92ZM312.677 137.2C311.837 137.2 311.091 137.087 310.437 136.86C309.797 136.62 309.291 136.28 308.917 135.84C308.557 135.387 308.377 134.853 308.377 134.24C308.377 134.2 308.377 134.14 308.377 134.06C308.377 133.98 308.384 133.893 308.397 133.8H310.117V134C310.117 134.56 310.357 135 310.837 135.32C311.331 135.627 312.031 135.78 312.937 135.78C313.751 135.78 314.364 135.64 314.777 135.36C315.204 135.067 315.417 134.687 315.417 134.22C315.417 133.913 315.331 133.66 315.157 133.46C314.984 133.26 314.671 133.087 314.217 132.94C313.777 132.793 313.137 132.653 312.297 132.52C311.404 132.36 310.684 132.167 310.137 131.94C309.591 131.7 309.197 131.393 308.957 131.02C308.717 130.633 308.597 130.153 308.597 129.58C308.597 128.913 308.777 128.36 309.137 127.92C309.497 127.48 309.997 127.147 310.637 126.92C311.291 126.693 312.051 126.58 312.917 126.58C313.677 126.58 314.357 126.693 314.957 126.92C315.571 127.147 316.057 127.467 316.417 127.88C316.777 128.28 316.957 128.767 316.957 129.34C316.957 129.38 316.957 129.427 316.957 129.48C316.957 129.533 316.944 129.607 316.917 129.7H315.177C315.177 129.22 315.064 128.86 314.837 128.62C314.624 128.367 314.331 128.2 313.957 128.12C313.597 128.027 313.197 127.98 312.757 127.98C311.211 127.98 310.437 128.46 310.437 129.42C310.437 129.673 310.517 129.887 310.677 130.06C310.837 130.22 311.124 130.367 311.537 130.5C311.964 130.633 312.571 130.773 313.357 130.92C314.331 131.093 315.097 131.307 315.657 131.56C316.231 131.813 316.644 132.14 316.897 132.54C317.151 132.927 317.277 133.433 317.277 134.06C317.277 134.767 317.091 135.353 316.717 135.82C316.357 136.287 315.831 136.633 315.137 136.86C314.457 137.087 313.637 137.2 312.677 137.2ZM324.37 137V128.34H320.71V126.78H326.37V137H324.37ZM320.71 137V135.46H329.83V137H320.71ZM324.29 124.68V122.76H326.17V124.68H324.29ZM334.502 140.76C333.648 140.76 332.988 140.527 332.522 140.06C332.055 139.593 331.822 139.02 331.822 138.34C331.822 137.833 331.962 137.38 332.242 136.98C332.522 136.58 332.882 136.287 333.322 136.1C333.028 135.913 332.795 135.667 332.622 135.36C332.462 135.053 332.382 134.727 332.382 134.38C332.382 133.913 332.535 133.493 332.842 133.12C333.148 132.747 333.568 132.507 334.102 132.4C333.622 132.12 333.262 131.76 333.022 131.32C332.782 130.88 332.662 130.373 332.662 129.8C332.662 128.8 333.015 128.013 333.722 127.44C334.442 126.867 335.502 126.58 336.902 126.58C337.728 126.58 338.395 126.693 338.902 126.92C339.435 126.773 339.835 126.527 340.102 126.18C340.382 125.82 340.542 125.407 340.582 124.94H342.202C342.202 125.607 342.008 126.173 341.622 126.64C341.248 127.093 340.755 127.387 340.142 127.52V127.56C340.462 127.813 340.702 128.14 340.862 128.54C341.035 128.927 341.122 129.347 341.122 129.8C341.122 130.787 340.782 131.573 340.102 132.16C339.435 132.747 338.468 133.04 337.202 133.04H335.562C335.162 133.04 334.842 133.133 334.602 133.32C334.375 133.507 334.262 133.767 334.262 134.1C334.262 134.433 334.375 134.693 334.602 134.88C334.828 135.053 335.142 135.14 335.542 135.14H339.162C340.108 135.14 340.848 135.387 341.382 135.88C341.928 136.36 342.202 137 342.202 137.8C342.202 138.667 341.928 139.373 341.382 139.92C340.848 140.48 340.088 140.76 339.102 140.76H334.502ZM335.062 139.44H338.842C339.335 139.44 339.708 139.307 339.962 139.04C340.215 138.787 340.342 138.467 340.342 138.08C340.342 137.707 340.215 137.393 339.962 137.14C339.722 136.887 339.348 136.76 338.842 136.76H335.062C334.582 136.76 334.215 136.887 333.962 137.14C333.708 137.407 333.582 137.727 333.582 138.1C333.582 138.46 333.708 138.773 333.962 139.04C334.215 139.307 334.582 139.44 335.062 139.44ZM336.922 131.76C337.655 131.76 338.228 131.593 338.642 131.26C339.055 130.913 339.262 130.433 339.262 129.82C339.262 129.193 339.055 128.713 338.642 128.38C338.228 128.047 337.655 127.88 336.922 127.88C336.202 127.88 335.628 128.047 335.202 128.38C334.788 128.713 334.582 129.193 334.582 129.82C334.582 130.433 334.788 130.913 335.202 131.26C335.628 131.593 336.202 131.76 336.922 131.76ZM344.514 137V126.78H346.134L346.334 128.24C346.641 127.667 347.074 127.247 347.634 126.98C348.194 126.713 348.814 126.58 349.494 126.58C350.614 126.58 351.507 126.893 352.174 127.52C352.841 128.147 353.174 129.073 353.174 130.3V137H351.174V130.88C351.174 129.92 350.974 129.22 350.574 128.78C350.187 128.34 349.641 128.12 348.934 128.12C348.441 128.12 348.014 128.247 347.654 128.5C347.294 128.74 347.014 129.08 346.814 129.52C346.614 129.947 346.514 130.44 346.514 131V137H344.514ZM360.786 137.2C359.719 137.2 358.833 136.987 358.126 136.56C357.433 136.133 356.913 135.533 356.566 134.76C356.233 133.987 356.066 133.1 356.066 132.1V131.68C356.066 130.64 356.259 129.74 356.646 128.98C357.033 128.22 357.586 127.633 358.306 127.22C359.026 126.793 359.879 126.58 360.866 126.58C361.786 126.58 362.573 126.767 363.226 127.14C363.893 127.513 364.406 128.02 364.766 128.66C365.139 129.3 365.326 130.033 365.326 130.86V132.22H358.146V132.56C358.146 133.613 358.399 134.413 358.906 134.96C359.413 135.507 360.053 135.78 360.826 135.78C361.679 135.78 362.326 135.573 362.766 135.16C363.219 134.747 363.446 134.107 363.446 133.24H365.326C365.326 134.053 365.133 134.76 364.746 135.36C364.373 135.947 363.846 136.4 363.166 136.72C362.499 137.04 361.706 137.2 360.786 137.2ZM358.166 130.92H363.366V130.62C363.366 130.113 363.259 129.667 363.046 129.28C362.846 128.88 362.553 128.567 362.166 128.34C361.779 128.113 361.333 128 360.826 128C360.253 128 359.766 128.14 359.366 128.42C358.979 128.7 358.679 129.06 358.466 129.5C358.266 129.927 358.166 130.367 358.166 130.82V130.92ZM370.278 137V128.34H367.698V126.78H371.898L371.998 128.28C372.238 127.747 372.605 127.333 373.098 127.04C373.605 126.733 374.185 126.58 374.838 126.58C375.838 126.58 376.605 126.88 377.138 127.48C377.685 128.067 377.958 128.82 377.958 129.74C377.958 129.887 377.952 130.027 377.938 130.16C377.938 130.28 377.925 130.427 377.898 130.6H376.198V130.18C376.198 129.82 376.125 129.487 375.978 129.18C375.845 128.873 375.632 128.627 375.338 128.44C375.058 128.24 374.692 128.14 374.238 128.14C373.798 128.14 373.425 128.267 373.118 128.52C372.825 128.773 372.605 129.093 372.458 129.48C372.312 129.867 372.238 130.273 372.238 130.7V137H370.278ZM367.598 137V135.46H376.818V137H367.598Z" fill="#0D122C"/>
</svg>
