<svg width="419" height="260" viewBox="0 0 419 260" fill="none" xmlns="http://www.w3.org/2000/svg">
<path d="M167.933 136.9V135.16L176.433 131.92L167.933 128.68V126.92L178.133 130.86V132.96L167.933 136.9ZM191.877 137V126.78H193.057L193.257 127.92C193.457 127.48 193.737 127.147 194.097 126.92C194.471 126.693 194.871 126.58 195.297 126.58C195.751 126.58 196.151 126.7 196.497 126.94C196.857 127.18 197.124 127.533 197.297 128C197.537 127.533 197.831 127.18 198.177 126.94C198.537 126.7 198.977 126.58 199.497 126.58C200.231 126.58 200.791 126.813 201.177 127.28C201.577 127.747 201.777 128.413 201.777 129.28V137H200.057V129.64C200.057 128.64 199.684 128.14 198.937 128.14C198.577 128.14 198.277 128.28 198.037 128.56C197.797 128.84 197.677 129.2 197.677 129.64V137H195.977V129.64C195.977 128.64 195.591 128.14 194.817 128.14C194.457 128.14 194.157 128.28 193.917 128.56C193.691 128.84 193.577 129.2 193.577 129.64V137H191.877ZM208.37 137V128.34H204.71V126.78H210.37V137H208.37ZM204.71 137V135.46H213.83V137H204.71ZM208.29 124.68V122.76H210.17V124.68H208.29ZM218.502 140.76C217.648 140.76 216.988 140.527 216.522 140.06C216.055 139.593 215.822 139.02 215.822 138.34C215.822 137.833 215.962 137.38 216.242 136.98C216.522 136.58 216.882 136.287 217.322 136.1C217.028 135.913 216.795 135.667 216.622 135.36C216.462 135.053 216.382 134.727 216.382 134.38C216.382 133.913 216.535 133.493 216.842 133.12C217.148 132.747 217.568 132.507 218.102 132.4C217.622 132.12 217.262 131.76 217.022 131.32C216.782 130.88 216.662 130.373 216.662 129.8C216.662 128.8 217.015 128.013 217.722 127.44C218.442 126.867 219.502 126.58 220.902 126.58C221.728 126.58 222.395 126.693 222.902 126.92C223.435 126.773 223.835 126.527 224.102 126.18C224.382 125.82 224.542 125.407 224.582 124.94H226.202C226.202 125.607 226.008 126.173 225.622 126.64C225.248 127.093 224.755 127.387 224.142 127.52V127.56C224.462 127.813 224.702 128.14 224.862 128.54C225.035 128.927 225.122 129.347 225.122 129.8C225.122 130.787 224.782 131.573 224.102 132.16C223.435 132.747 222.468 133.04 221.202 133.04H219.562C219.162 133.04 218.842 133.133 218.602 133.32C218.375 133.507 218.262 133.767 218.262 134.1C218.262 134.433 218.375 134.693 218.602 134.88C218.828 135.053 219.142 135.14 219.542 135.14H223.162C224.108 135.14 224.848 135.387 225.382 135.88C225.928 136.36 226.202 137 226.202 137.8C226.202 138.667 225.928 139.373 225.382 139.92C224.848 140.48 224.088 140.76 223.102 140.76H218.502ZM219.062 139.44H222.842C223.335 139.44 223.708 139.307 223.962 139.04C224.215 138.787 224.342 138.467 224.342 138.08C224.342 137.707 224.215 137.393 223.962 137.14C223.722 136.887 223.348 136.76 222.842 136.76H219.062C218.582 136.76 218.215 136.887 217.962 137.14C217.708 137.407 217.582 137.727 217.582 138.1C217.582 138.46 217.708 138.773 217.962 139.04C218.215 139.307 218.582 139.44 219.062 139.44ZM220.922 131.76C221.655 131.76 222.228 131.593 222.642 131.26C223.055 130.913 223.262 130.433 223.262 129.82C223.262 129.193 223.055 128.713 222.642 128.38C222.228 128.047 221.655 127.88 220.922 127.88C220.202 127.88 219.628 128.047 219.202 128.38C218.788 128.713 218.582 129.193 218.582 129.82C218.582 130.433 218.788 130.913 219.202 131.26C219.628 131.593 220.202 131.76 220.922 131.76ZM249.686 126.94V128.68L241.186 131.92L249.686 135.16V136.92L239.486 132.98V130.88L249.686 126.94Z" fill="#0D122C"/>
<path d="M130 0C159.853 0 187.354 10.063 209.3 26.9809C178.465 50.7515 158.6 88.0556 158.6 130C158.6 171.944 178.465 209.248 209.3 233.018C187.354 249.936 159.853 260 130 260C58.203 260 0 201.797 0 130C0 58.203 58.203 0 130 0Z" fill="#B1D0FF"/>
<path d="M288.167 0C258.314 0 230.812 10.063 208.867 26.9809C239.701 50.7515 259.567 88.0556 259.567 130C259.567 171.944 239.701 209.248 208.867 233.018C230.812 249.936 258.314 260 288.167 260C359.964 260 418.167 201.797 418.167 130C418.167 58.203 359.964 0 288.167 0Z" fill="#B1D0FF"/>
<path d="M43.953 137.2C42.8597 137.2 41.9797 136.893 41.313 136.28C40.6597 135.667 40.333 134.74 40.333 133.5V126.78H42.353V133.12C42.353 133.973 42.5463 134.607 42.933 135.02C43.333 135.433 43.8863 135.64 44.593 135.64C45.0597 135.64 45.473 135.527 45.833 135.3C46.2063 135.06 46.493 134.74 46.693 134.34C46.9063 133.94 47.013 133.493 47.013 133V126.78H49.013V135.16C49.013 135.373 49.0597 135.527 49.153 135.62C49.2463 135.713 49.3863 135.76 49.573 135.76C49.7063 135.76 49.8397 135.747 49.973 135.72C50.1063 135.693 50.2463 135.627 50.393 135.52V136.82C50.2197 136.94 49.9997 137.033 49.733 137.1C49.4797 137.167 49.2197 137.2 48.953 137.2C48.473 137.2 48.1063 137.133 47.853 137C47.613 136.853 47.4463 136.653 47.353 136.4C47.273 136.147 47.2197 135.86 47.193 135.54C46.993 135.9 46.7397 136.207 46.433 136.46C46.1263 136.7 45.7663 136.88 45.353 137C44.9397 137.133 44.473 137.2 43.953 137.2ZM56.0052 137.2C55.2719 137.2 54.5985 137.027 53.9852 136.68C53.3719 136.32 52.8785 135.767 52.5052 135.02C52.1452 134.26 51.9652 133.273 51.9652 132.06V131.84C51.9652 130.707 52.1452 129.747 52.5052 128.96C52.8652 128.173 53.3519 127.58 53.9652 127.18C54.5919 126.78 55.2852 126.58 56.0452 126.58C56.7252 126.58 57.3185 126.707 57.8252 126.96C58.3319 127.2 58.7252 127.533 59.0052 127.96V122.6H61.0052V137H59.3852L59.1652 135.54C58.8719 136.073 58.4585 136.487 57.9252 136.78C57.3919 137.06 56.7519 137.2 56.0052 137.2ZM56.4852 135.76C57.2185 135.76 57.8185 135.493 58.2852 134.96C58.7652 134.413 59.0052 133.573 59.0052 132.44V131.32C59.0052 130.2 58.7652 129.367 58.2852 128.82C57.8185 128.273 57.2185 128 56.4852 128C55.7519 128 55.1452 128.28 54.6652 128.84C54.1985 129.387 53.9652 130.213 53.9652 131.32V132.42C53.9652 133.553 54.1985 134.393 54.6652 134.94C55.1452 135.487 55.7519 135.76 56.4852 135.76ZM67.7374 137L63.7574 126.78H65.8974L68.8774 134.62H68.9374L71.9174 126.78H73.8774L69.8574 137H67.7374ZM80.3696 137V128.34H76.7096V126.78H82.3696V137H80.3696ZM76.7096 137V135.46H85.8296V137H76.7096ZM80.2896 124.68V122.76H82.1696V124.68H80.2896ZM88.3818 137V122.6H90.3818V132.38L95.1018 126.78H97.4618L93.4018 131.54L97.7018 137H95.2618L92.0018 132.94L90.3818 134.54V137H88.3818ZM103.954 137V124.14H100.274V122.58H105.934V137H103.954ZM100.274 137V135.46H109.414V137H100.274ZM116.786 137.2C115.719 137.2 114.833 136.987 114.126 136.56C113.433 136.133 112.913 135.533 112.566 134.76C112.233 133.987 112.066 133.1 112.066 132.1V131.68C112.066 130.64 112.259 129.74 112.646 128.98C113.033 128.22 113.586 127.633 114.306 127.22C115.026 126.793 115.879 126.58 116.866 126.58C117.786 126.58 118.573 126.767 119.226 127.14C119.893 127.513 120.406 128.02 120.766 128.66C121.139 129.3 121.326 130.033 121.326 130.86V132.22H114.146V132.56C114.146 133.613 114.399 134.413 114.906 134.96C115.413 135.507 116.053 135.78 116.826 135.78C117.679 135.78 118.326 135.573 118.766 135.16C119.219 134.747 119.446 134.107 119.446 133.24H121.326C121.326 134.053 121.133 134.76 120.746 135.36C120.373 135.947 119.846 136.4 119.166 136.72C118.499 137.04 117.706 137.2 116.786 137.2ZM114.166 130.92H119.366V130.62C119.366 130.113 119.259 129.667 119.046 129.28C118.846 128.88 118.553 128.567 118.166 128.34C117.779 128.113 117.333 128 116.826 128C116.253 128 115.766 128.14 115.366 128.42C114.979 128.7 114.679 129.06 114.466 129.5C114.266 129.927 114.166 130.367 114.166 130.82V130.92ZM126.278 137V128.34H123.698V126.78H127.898L127.998 128.28C128.238 127.747 128.605 127.333 129.098 127.04C129.605 126.733 130.185 126.58 130.838 126.58C131.838 126.58 132.605 126.88 133.138 127.48C133.685 128.067 133.958 128.82 133.958 129.74C133.958 129.887 133.952 130.027 133.938 130.16C133.938 130.28 133.925 130.427 133.898 130.6H132.198V130.18C132.198 129.82 132.125 129.487 131.978 129.18C131.845 128.873 131.632 128.627 131.338 128.44C131.058 128.24 130.692 128.14 130.238 128.14C129.798 128.14 129.425 128.267 129.118 128.52C128.825 128.773 128.605 129.093 128.458 129.48C128.312 129.867 128.238 130.273 128.238 130.7V137H126.278ZM123.598 137V135.46H132.818V137H123.598Z" fill="#0D122C"/>
<path d="M288.013 137.2C287.28 137.2 286.606 137.027 285.993 136.68C285.38 136.32 284.886 135.767 284.513 135.02C284.153 134.26 283.973 133.273 283.973 132.06V131.84C283.973 130.707 284.153 129.747 284.513 128.96C284.873 128.173 285.36 127.58 285.973 127.18C286.6 126.78 287.293 126.58 288.053 126.58C288.733 126.58 289.326 126.707 289.833 126.96C290.34 127.2 290.733 127.533 291.013 127.96V122.6H293.013V137H291.393L291.173 135.54C290.88 136.073 290.466 136.487 289.933 136.78C289.4 137.06 288.76 137.2 288.013 137.2ZM288.493 135.76C289.226 135.76 289.826 135.493 290.293 134.96C290.773 134.413 291.013 133.573 291.013 132.44V131.32C291.013 130.2 290.773 129.367 290.293 128.82C289.826 128.273 289.226 128 288.493 128C287.76 128 287.153 128.28 286.673 128.84C286.206 129.387 285.973 130.213 285.973 131.32V132.42C285.973 133.553 286.206 134.393 286.673 134.94C287.153 135.487 287.76 135.76 288.493 135.76ZM300.825 137.2C299.759 137.2 298.872 136.987 298.165 136.56C297.472 136.133 296.952 135.533 296.605 134.76C296.272 133.987 296.105 133.1 296.105 132.1V131.68C296.105 130.64 296.299 129.74 296.685 128.98C297.072 128.22 297.625 127.633 298.345 127.22C299.065 126.793 299.919 126.58 300.905 126.58C301.825 126.58 302.612 126.767 303.265 127.14C303.932 127.513 304.445 128.02 304.805 128.66C305.179 129.3 305.365 130.033 305.365 130.86V132.22H298.185V132.56C298.185 133.613 298.439 134.413 298.945 134.96C299.452 135.507 300.092 135.78 300.865 135.78C301.719 135.78 302.365 135.573 302.805 135.16C303.259 134.747 303.485 134.107 303.485 133.24H305.365C305.365 134.053 305.172 134.76 304.785 135.36C304.412 135.947 303.885 136.4 303.205 136.72C302.539 137.04 301.745 137.2 300.825 137.2ZM298.205 130.92H303.405V130.62C303.405 130.113 303.299 129.667 303.085 129.28C302.885 128.88 302.592 128.567 302.205 128.34C301.819 128.113 301.372 128 300.865 128C300.292 128 299.805 128.14 299.405 128.42C299.019 128.7 298.719 129.06 298.505 129.5C298.305 129.927 298.205 130.367 298.205 130.82V130.92ZM312.677 137.2C311.837 137.2 311.091 137.087 310.437 136.86C309.797 136.62 309.291 136.28 308.917 135.84C308.557 135.387 308.377 134.853 308.377 134.24C308.377 134.2 308.377 134.14 308.377 134.06C308.377 133.98 308.384 133.893 308.397 133.8H310.117V134C310.117 134.56 310.357 135 310.837 135.32C311.331 135.627 312.031 135.78 312.937 135.78C313.751 135.78 314.364 135.64 314.777 135.36C315.204 135.067 315.417 134.687 315.417 134.22C315.417 133.913 315.331 133.66 315.157 133.46C314.984 133.26 314.671 133.087 314.217 132.94C313.777 132.793 313.137 132.653 312.297 132.52C311.404 132.36 310.684 132.167 310.137 131.94C309.591 131.7 309.197 131.393 308.957 131.02C308.717 130.633 308.597 130.153 308.597 129.58C308.597 128.913 308.777 128.36 309.137 127.92C309.497 127.48 309.997 127.147 310.637 126.92C311.291 126.693 312.051 126.58 312.917 126.58C313.677 126.58 314.357 126.693 314.957 126.92C315.571 127.147 316.057 127.467 316.417 127.88C316.777 128.28 316.957 128.767 316.957 129.34C316.957 129.38 316.957 129.427 316.957 129.48C316.957 129.533 316.944 129.607 316.917 129.7H315.177C315.177 129.22 315.064 128.86 314.837 128.62C314.624 128.367 314.331 128.2 313.957 128.12C313.597 128.027 313.197 127.98 312.757 127.98C311.211 127.98 310.437 128.46 310.437 129.42C310.437 129.673 310.517 129.887 310.677 130.06C310.837 130.22 311.124 130.367 311.537 130.5C311.964 130.633 312.571 130.773 313.357 130.92C314.331 131.093 315.097 131.307 315.657 131.56C316.231 131.813 316.644 132.14 316.897 132.54C317.151 132.927 317.277 133.433 317.277 134.06C317.277 134.767 317.091 135.353 316.717 135.82C316.357 136.287 315.831 136.633 315.137 136.86C314.457 137.087 313.637 137.2 312.677 137.2ZM324.37 137V128.34H320.71V126.78H326.37V137H324.37ZM320.71 137V135.46H329.83V137H320.71ZM324.29 124.68V122.76H326.17V124.68H324.29ZM334.502 140.76C333.648 140.76 332.988 140.527 332.522 140.06C332.055 139.593 331.822 139.02 331.822 138.34C331.822 137.833 331.962 137.38 332.242 136.98C332.522 136.58 332.882 136.287 333.322 136.1C333.028 135.913 332.795 135.667 332.622 135.36C332.462 135.053 332.382 134.727 332.382 134.38C332.382 133.913 332.535 133.493 332.842 133.12C333.148 132.747 333.568 132.507 334.102 132.4C333.622 132.12 333.262 131.76 333.022 131.32C332.782 130.88 332.662 130.373 332.662 129.8C332.662 128.8 333.015 128.013 333.722 127.44C334.442 126.867 335.502 126.58 336.902 126.58C337.728 126.58 338.395 126.693 338.902 126.92C339.435 126.773 339.835 126.527 340.102 126.18C340.382 125.82 340.542 125.407 340.582 124.94H342.202C342.202 125.607 342.008 126.173 341.622 126.64C341.248 127.093 340.755 127.387 340.142 127.52V127.56C340.462 127.813 340.702 128.14 340.862 128.54C341.035 128.927 341.122 129.347 341.122 129.8C341.122 130.787 340.782 131.573 340.102 132.16C339.435 132.747 338.468 133.04 337.202 133.04H335.562C335.162 133.04 334.842 133.133 334.602 133.32C334.375 133.507 334.262 133.767 334.262 134.1C334.262 134.433 334.375 134.693 334.602 134.88C334.828 135.053 335.142 135.14 335.542 135.14H339.162C340.108 135.14 340.848 135.387 341.382 135.88C341.928 136.36 342.202 137 342.202 137.8C342.202 138.667 341.928 139.373 341.382 139.92C340.848 140.48 340.088 140.76 339.102 140.76H334.502ZM335.062 139.44H338.842C339.335 139.44 339.708 139.307 339.962 139.04C340.215 138.787 340.342 138.467 340.342 138.08C340.342 137.707 340.215 137.393 339.962 137.14C339.722 136.887 339.348 136.76 338.842 136.76H335.062C334.582 136.76 334.215 136.887 333.962 137.14C333.708 137.407 333.582 137.727 333.582 138.1C333.582 138.46 333.708 138.773 333.962 139.04C334.215 139.307 334.582 139.44 335.062 139.44ZM336.922 131.76C337.655 131.76 338.228 131.593 338.642 131.26C339.055 130.913 339.262 130.433 339.262 129.82C339.262 129.193 339.055 128.713 338.642 128.38C338.228 128.047 337.655 127.88 336.922 127.88C336.202 127.88 335.628 128.047 335.202 128.38C334.788 128.713 334.582 129.193 334.582 129.82C334.582 130.433 334.788 130.913 335.202 131.26C335.628 131.593 336.202 131.76 336.922 131.76ZM344.514 137V126.78H346.134L346.334 128.24C346.641 127.667 347.074 127.247 347.634 126.98C348.194 126.713 348.814 126.58 349.494 126.58C350.614 126.58 351.507 126.893 352.174 127.52C352.841 128.147 353.174 129.073 353.174 130.3V137H351.174V130.88C351.174 129.92 350.974 129.22 350.574 128.78C350.187 128.34 349.641 128.12 348.934 128.12C348.441 128.12 348.014 128.247 347.654 128.5C347.294 128.74 347.014 129.08 346.814 129.52C346.614 129.947 346.514 130.44 346.514 131V137H344.514ZM360.786 137.2C359.719 137.2 358.833 136.987 358.126 136.56C357.433 136.133 356.913 135.533 356.566 134.76C356.233 133.987 356.066 133.1 356.066 132.1V131.68C356.066 130.64 356.259 129.74 356.646 128.98C357.033 128.22 357.586 127.633 358.306 127.22C359.026 126.793 359.879 126.58 360.866 126.58C361.786 126.58 362.573 126.767 363.226 127.14C363.893 127.513 364.406 128.02 364.766 128.66C365.139 129.3 365.326 130.033 365.326 130.86V132.22H358.146V132.56C358.146 133.613 358.399 134.413 358.906 134.96C359.413 135.507 360.053 135.78 360.826 135.78C361.679 135.78 362.326 135.573 362.766 135.16C363.219 134.747 363.446 134.107 363.446 133.24H365.326C365.326 134.053 365.133 134.76 364.746 135.36C364.373 135.947 363.846 136.4 363.166 136.72C362.499 137.04 361.706 137.2 360.786 137.2ZM358.166 130.92H363.366V130.62C363.366 130.113 363.259 129.667 363.046 129.28C362.846 128.88 362.553 128.567 362.166 128.34C361.779 128.113 361.333 128 360.826 128C360.253 128 359.766 128.14 359.366 128.42C358.979 128.7 358.679 129.06 358.466 129.5C358.266 129.927 358.166 130.367 358.166 130.82V130.92ZM370.278 137V128.34H367.698V126.78H371.898L371.998 128.28C372.238 127.747 372.605 127.333 373.098 127.04C373.605 126.733 374.185 126.58 374.838 126.58C375.838 126.58 376.605 126.88 377.138 127.48C377.685 128.067 377.958 128.82 377.958 129.74C377.958 129.887 377.952 130.027 377.938 130.16C377.938 130.28 377.925 130.427 377.898 130.6H376.198V130.18C376.198 129.82 376.125 129.487 375.978 129.18C375.845 128.873 375.632 128.627 375.338 128.44C375.058 128.24 374.692 128.14 374.238 128.14C373.798 128.14 373.425 128.267 373.118 128.52C372.825 128.773 372.605 129.093 372.458 129.48C372.312 129.867 372.238 130.273 372.238 130.7V137H370.278ZM367.598 137V135.46H376.818V137H367.598Z" fill="#0D122C"/>
</svg>
